<svg width="1379" height="1005" viewBox="0 0 1379 1005" fill="none" xmlns="http://www.w3.org/2000/svg">
<path d="M9.936 869.184V972H32.544V869.184H9.936ZM50.8208 897.552V972H71.2688V928.8C71.2688 925.152 71.7968 922.224 72.8528 920.016C73.9088 917.712 75.1568 915.984 76.5968 914.832C78.1328 913.584 79.6688 912.768 81.2048 912.384C82.8368 911.904 84.1328 911.664 85.0928 911.664C88.3568 911.664 90.8048 912.24 92.4368 913.392C94.1648 914.448 95.3648 915.888 96.0368 917.712C96.8048 919.536 97.2368 921.552 97.3328 923.76C97.4288 925.872 97.4768 928.032 97.4768 930.24V972H117.925V930.528C117.925 928.224 118.069 925.968 118.357 923.76C118.741 921.456 119.413 919.44 120.373 917.712C121.429 915.888 122.821 914.448 124.549 913.392C126.373 912.24 128.725 911.664 131.605 911.664C134.485 911.664 136.741 912.144 138.373 913.104C140.101 914.064 141.397 915.36 142.261 916.992C143.125 918.624 143.653 920.544 143.845 922.752C144.037 924.96 144.133 927.312 144.133 929.808V972H164.581V922.176C164.581 917.376 163.909 913.296 162.565 909.936C161.221 906.48 159.349 903.696 156.949 901.584C154.549 899.472 151.669 897.936 148.309 896.976C144.949 896.016 141.301 895.536 137.365 895.536C132.181 895.536 127.669 896.784 123.829 899.28C120.085 901.776 117.109 904.656 114.901 907.92C112.885 903.312 109.909 900.096 105.973 898.272C102.133 896.448 97.8608 895.536 93.1568 895.536C88.2608 895.536 83.8928 896.592 80.0528 898.704C76.3088 900.816 73.0928 903.792 70.4048 907.632H70.1168V897.552H50.8208ZM218.329 958.608C215.065 958.608 212.281 957.936 209.977 956.592C207.673 955.248 205.801 953.52 204.361 951.408C203.017 949.2 202.009 946.656 201.337 943.776C200.761 940.896 200.473 937.968 200.473 934.992C200.473 931.92 200.761 928.944 201.337 926.064C201.913 923.184 202.873 920.64 204.217 918.432C205.657 916.224 207.481 914.448 209.689 913.104C211.993 911.664 214.825 910.944 218.185 910.944C221.449 910.944 224.185 911.664 226.393 913.104C228.697 914.448 230.569 916.272 232.009 918.576C233.449 920.784 234.457 923.328 235.033 926.208C235.705 929.088 236.041 932.016 236.041 934.992C236.041 937.968 235.753 940.896 235.177 943.776C234.601 946.656 233.593 949.2 232.153 951.408C230.809 953.52 228.985 955.248 226.681 956.592C224.473 957.936 221.689 958.608 218.329 958.608ZM180.745 897.552V998.064H201.193V962.784H201.481C203.977 966.432 207.145 969.216 210.985 971.136C214.921 972.96 219.193 973.872 223.801 973.872C229.273 973.872 234.025 972.816 238.057 970.704C242.185 968.592 245.593 965.76 248.281 962.208C251.065 958.656 253.129 954.576 254.473 949.968C255.817 945.36 256.489 940.56 256.489 935.568C256.489 930.288 255.817 925.248 254.473 920.448C253.129 915.552 251.065 911.28 248.281 907.632C245.497 903.984 241.993 901.056 237.769 898.848C233.545 896.64 228.505 895.536 222.649 895.536C218.041 895.536 213.817 896.448 209.977 898.272C206.137 900.096 202.969 903.024 200.473 907.056H200.185V897.552H180.745ZM318.888 926.784H285.624C285.72 925.344 286.008 923.712 286.488 921.888C287.064 920.064 287.976 918.336 289.224 916.704C290.568 915.072 292.296 913.728 294.408 912.672C296.616 911.52 299.352 910.944 302.616 910.944C307.608 910.944 311.304 912.288 313.704 914.976C316.2 917.664 317.928 921.6 318.888 926.784ZM285.624 939.744H339.336C339.72 933.984 339.24 928.464 337.896 923.184C336.552 917.904 334.344 913.2 331.272 909.072C328.296 904.944 324.456 901.68 319.752 899.28C315.048 896.784 309.528 895.536 303.192 895.536C297.528 895.536 292.344 896.544 287.64 898.56C283.032 900.576 279.048 903.36 275.688 906.912C272.328 910.368 269.736 914.496 267.912 919.296C266.088 924.096 265.176 929.28 265.176 934.848C265.176 940.608 266.04 945.888 267.768 950.688C269.592 955.488 272.136 959.616 275.4 963.072C278.664 966.528 282.648 969.216 287.352 971.136C292.056 972.96 297.336 973.872 303.192 973.872C311.64 973.872 318.84 971.952 324.792 968.112C330.744 964.272 335.16 957.888 338.04 948.96H320.04C319.368 951.264 317.544 953.472 314.568 955.584C311.592 957.6 308.04 958.608 303.912 958.608C298.152 958.608 293.736 957.12 290.664 954.144C287.592 951.168 285.912 946.368 285.624 939.744ZM351.464 897.552V972H371.912V938.448C371.912 935.088 372.248 931.968 372.92 929.088C373.592 926.208 374.696 923.712 376.232 921.6C377.864 919.392 379.976 917.664 382.568 916.416C385.16 915.168 388.328 914.544 392.072 914.544C393.32 914.544 394.616 914.64 395.96 914.832C397.304 914.928 398.456 915.072 399.416 915.264V896.256C397.784 895.776 396.296 895.536 394.952 895.536C392.36 895.536 389.864 895.92 387.464 896.688C385.064 897.456 382.808 898.56 380.695 900C378.584 901.344 376.712 903.024 375.08 905.04C373.448 906.96 372.152 909.072 371.192 911.376H370.904V897.552H351.464ZM448.616 972L473.816 897.552H453.512L437.816 948.384H437.528L421.832 897.552H400.376L425.864 972H448.616ZM503.269 886.032V869.184H482.821V886.032H503.269ZM482.821 897.552V972H503.269V897.552H482.821ZM537.514 934.848C537.514 931.872 537.802 928.944 538.378 926.064C538.954 923.184 539.914 920.64 541.258 918.432C542.698 916.224 544.57 914.448 546.874 913.104C549.178 911.664 552.058 910.944 555.514 910.944C558.97 910.944 561.85 911.664 564.154 913.104C566.554 914.448 568.426 916.224 569.77 918.432C571.21 920.64 572.218 923.184 572.794 926.064C573.37 928.944 573.658 931.872 573.658 934.848C573.658 937.824 573.37 940.752 572.794 943.632C572.218 946.416 571.21 948.96 569.77 951.264C568.426 953.472 566.554 955.248 564.154 956.592C561.85 957.936 558.97 958.608 555.514 958.608C552.058 958.608 549.178 957.936 546.874 956.592C544.57 955.248 542.698 953.472 541.258 951.264C539.914 948.96 538.954 946.416 538.378 943.632C537.802 940.752 537.514 937.824 537.514 934.848ZM517.066 934.848C517.066 940.8 517.978 946.176 519.802 950.976C521.626 955.776 524.218 959.904 527.578 963.36C530.938 966.72 534.97 969.312 539.674 971.136C544.378 972.96 549.658 973.872 555.514 973.872C561.37 973.872 566.65 972.96 571.354 971.136C576.154 969.312 580.234 966.72 583.594 963.36C586.954 959.904 589.546 955.776 591.37 950.976C593.194 946.176 594.106 940.8 594.106 934.848C594.106 928.896 593.194 923.52 591.37 918.72C589.546 913.824 586.954 909.696 583.594 906.336C580.234 902.88 576.154 900.24 571.354 898.416C566.65 896.496 561.37 895.536 555.514 895.536C549.658 895.536 544.378 896.496 539.674 898.416C534.97 900.24 530.938 902.88 527.578 906.336C524.218 909.696 521.626 913.824 519.802 918.72C517.978 923.52 517.066 928.896 517.066 934.848ZM677.241 972V897.552H656.793V936.576C656.793 944.16 655.545 949.632 653.049 952.992C650.553 956.256 646.521 957.888 640.953 957.888C636.057 957.888 632.649 956.4 630.729 953.424C628.809 950.352 627.849 945.744 627.849 939.6V897.552H607.401V943.344C607.401 947.952 607.785 952.176 608.553 956.016C609.417 959.76 610.857 962.976 612.873 965.664C614.889 968.256 617.625 970.272 621.081 971.712C624.633 973.152 629.145 973.872 634.617 973.872C638.937 973.872 643.161 972.912 647.289 970.992C651.417 969.072 654.777 965.952 657.369 961.632H657.801V972H677.241ZM708.6 947.808H689.16C689.352 952.8 690.456 956.976 692.472 960.336C694.584 963.6 697.224 966.24 700.392 968.256C703.656 970.272 707.352 971.712 711.48 972.576C715.608 973.44 719.832 973.872 724.152 973.872C728.376 973.872 732.504 973.44 736.536 972.576C740.664 971.808 744.312 970.416 747.48 968.4C750.648 966.384 753.192 963.744 755.112 960.48C757.128 957.12 758.136 952.992 758.136 948.096C758.136 944.64 757.464 941.76 756.12 939.456C754.776 937.056 753 935.088 750.792 933.552C748.584 931.92 746.04 930.624 743.16 929.664C740.376 928.704 737.496 927.888 734.52 927.216C731.64 926.544 728.808 925.92 726.024 925.344C723.24 924.768 720.744 924.144 718.536 923.472C716.424 922.704 714.696 921.744 713.352 920.592C712.008 919.44 711.336 917.952 711.336 916.128C711.336 914.592 711.72 913.392 712.488 912.528C713.256 911.568 714.168 910.848 715.224 910.368C716.376 909.888 717.624 909.6 718.968 909.504C720.312 909.312 721.56 909.216 722.712 909.216C726.36 909.216 729.528 909.936 732.216 911.376C734.904 912.72 736.392 915.36 736.68 919.296H756.12C755.736 914.688 754.536 910.896 752.52 907.92C750.6 904.848 748.152 902.4 745.176 900.576C742.2 898.752 738.792 897.456 734.952 896.688C731.208 895.92 727.32 895.536 723.288 895.536C719.256 895.536 715.32 895.92 711.48 896.688C707.64 897.36 704.184 898.608 701.112 900.432C698.04 902.16 695.544 904.56 693.624 907.632C691.8 910.704 690.888 914.64 690.888 919.44C690.888 922.704 691.56 925.488 692.904 927.792C694.248 930 696.024 931.872 698.232 933.408C700.44 934.848 702.936 936.048 705.72 937.008C708.6 937.872 711.528 938.64 714.504 939.312C721.8 940.848 727.464 942.384 731.496 943.92C735.624 945.456 737.688 947.76 737.688 950.832C737.688 952.656 737.256 954.192 736.392 955.44C735.528 956.592 734.424 957.552 733.08 958.32C731.832 958.992 730.392 959.52 728.76 959.904C727.224 960.192 725.736 960.336 724.296 960.336C722.28 960.336 720.312 960.096 718.392 959.616C716.568 959.136 714.936 958.416 713.496 957.456C712.056 956.4 710.856 955.104 709.896 953.568C709.032 951.936 708.6 950.016 708.6 947.808ZM834.95 910.8V886.752H856.118C858.134 886.752 860.054 886.944 861.878 887.328C863.798 887.616 865.478 888.192 866.918 889.056C868.358 889.92 869.51 891.12 870.374 892.656C871.238 894.192 871.67 896.16 871.67 898.56C871.67 902.88 870.374 906 867.782 907.92C865.19 909.84 861.878 910.8 857.846 910.8H834.95ZM812.342 869.184V972H862.166C866.774 972 871.238 971.424 875.558 970.272C879.974 969.12 883.862 967.344 887.222 964.944C890.678 962.544 893.414 959.472 895.43 955.728C897.446 951.888 898.454 947.376 898.454 942.192C898.454 935.76 896.87 930.288 893.702 925.776C890.63 921.168 885.926 917.952 879.59 916.128C884.198 913.92 887.654 911.088 889.958 907.632C892.358 904.176 893.558 899.856 893.558 894.672C893.558 889.872 892.742 885.84 891.11 882.576C889.574 879.312 887.366 876.72 884.486 874.8C881.606 872.784 878.15 871.344 874.118 870.48C870.086 869.616 865.622 869.184 860.726 869.184H812.342ZM834.95 954.432V926.208H859.574C864.47 926.208 868.406 927.36 871.382 929.664C874.358 931.872 875.846 935.616 875.846 940.896C875.846 943.584 875.366 945.792 874.406 947.52C873.542 949.248 872.342 950.64 870.806 951.696C869.27 952.656 867.494 953.376 865.478 953.856C863.462 954.24 861.35 954.432 859.142 954.432H834.95ZM911.573 897.552V972H932.021V938.448C932.021 935.088 932.357 931.968 933.029 929.088C933.701 926.208 934.805 923.712 936.341 921.6C937.973 919.392 940.085 917.664 942.677 916.416C945.269 915.168 948.437 914.544 952.181 914.544C953.429 914.544 954.725 914.64 956.069 914.832C957.413 914.928 958.565 915.072 959.525 915.264V896.256C957.893 895.776 956.405 895.536 955.061 895.536C952.469 895.536 949.973 895.92 947.573 896.688C945.173 897.456 942.917 898.56 940.805 900C938.693 901.344 936.821 903.024 935.189 905.04C933.557 906.96 932.261 909.072 931.301 911.376H931.013V897.552H911.573ZM983.154 934.848C983.154 931.872 983.442 928.944 984.018 926.064C984.594 923.184 985.554 920.64 986.898 918.432C988.338 916.224 990.21 914.448 992.514 913.104C994.818 911.664 997.698 910.944 1001.15 910.944C1004.61 910.944 1007.49 911.664 1009.79 913.104C1012.19 914.448 1014.07 916.224 1015.41 918.432C1016.85 920.64 1017.86 923.184 1018.43 926.064C1019.01 928.944 1019.3 931.872 1019.3 934.848C1019.3 937.824 1019.01 940.752 1018.43 943.632C1017.86 946.416 1016.85 948.96 1015.41 951.264C1014.07 953.472 1012.19 955.248 1009.79 956.592C1007.49 957.936 1004.61 958.608 1001.15 958.608C997.698 958.608 994.818 957.936 992.514 956.592C990.21 955.248 988.338 953.472 986.898 951.264C985.554 948.96 984.594 946.416 984.018 943.632C983.442 940.752 983.154 937.824 983.154 934.848ZM962.706 934.848C962.706 940.8 963.618 946.176 965.442 950.976C967.266 955.776 969.858 959.904 973.218 963.36C976.578 966.72 980.61 969.312 985.314 971.136C990.018 972.96 995.298 973.872 1001.15 973.872C1007.01 973.872 1012.29 972.96 1016.99 971.136C1021.79 969.312 1025.87 966.72 1029.23 963.36C1032.59 959.904 1035.19 955.776 1037.01 950.976C1038.83 946.176 1039.75 940.8 1039.75 934.848C1039.75 928.896 1038.83 923.52 1037.01 918.72C1035.19 913.824 1032.59 909.696 1029.23 906.336C1025.87 902.88 1021.79 900.24 1016.99 898.416C1012.29 896.496 1007.01 895.536 1001.15 895.536C995.298 895.536 990.018 896.496 985.314 898.416C980.61 900.24 976.578 902.88 973.218 906.336C969.858 909.696 967.266 913.824 965.442 918.72C963.618 923.52 962.706 928.896 962.706 934.848ZM1138.15 972L1161.62 897.552H1140.59L1126.91 947.952H1126.63L1113.95 897.552H1094.08L1081.7 948.096H1081.41L1067.73 897.552H1046.13L1069.75 972H1090.91L1103.59 922.032H1103.87L1117.12 972H1138.15ZM1186.16 947.808H1166.72C1166.91 952.8 1168.02 956.976 1170.03 960.336C1172.15 963.6 1174.79 966.24 1177.95 968.256C1181.22 970.272 1184.91 971.712 1189.04 972.576C1193.17 973.44 1197.39 973.872 1201.71 973.872C1205.94 973.872 1210.07 973.44 1214.1 972.576C1218.23 971.808 1221.87 970.416 1225.04 968.4C1228.21 966.384 1230.75 963.744 1232.67 960.48C1234.69 957.12 1235.7 952.992 1235.7 948.096C1235.7 944.64 1235.03 941.76 1233.68 939.456C1232.34 937.056 1230.56 935.088 1228.35 933.552C1226.15 931.92 1223.6 930.624 1220.72 929.664C1217.94 928.704 1215.06 927.888 1212.08 927.216C1209.2 926.544 1206.37 925.92 1203.59 925.344C1200.8 924.768 1198.31 924.144 1196.1 923.472C1193.99 922.704 1192.26 921.744 1190.91 920.592C1189.57 919.44 1188.9 917.952 1188.9 916.128C1188.9 914.592 1189.28 913.392 1190.05 912.528C1190.82 911.568 1191.73 910.848 1192.79 910.368C1193.94 909.888 1195.19 909.6 1196.53 909.504C1197.87 909.312 1199.12 909.216 1200.27 909.216C1203.92 909.216 1207.09 909.936 1209.78 911.376C1212.47 912.72 1213.95 915.36 1214.24 919.296H1233.68C1233.3 914.688 1232.1 910.896 1230.08 907.92C1228.16 904.848 1225.71 902.4 1222.74 900.576C1219.76 898.752 1216.35 897.456 1212.51 896.688C1208.77 895.92 1204.88 895.536 1200.85 895.536C1196.82 895.536 1192.88 895.92 1189.04 896.688C1185.2 897.36 1181.75 898.608 1178.67 900.432C1175.6 902.16 1173.11 904.56 1171.19 907.632C1169.36 910.704 1168.45 914.64 1168.45 919.44C1168.45 922.704 1169.12 925.488 1170.47 927.792C1171.81 930 1173.59 931.872 1175.79 933.408C1178 934.848 1180.5 936.048 1183.28 937.008C1186.16 937.872 1189.09 938.64 1192.07 939.312C1199.36 940.848 1205.03 942.384 1209.06 943.92C1213.19 945.456 1215.25 947.76 1215.25 950.832C1215.25 952.656 1214.82 954.192 1213.95 955.44C1213.09 956.592 1211.99 957.552 1210.64 958.32C1209.39 958.992 1207.95 959.52 1206.32 959.904C1204.79 960.192 1203.3 960.336 1201.86 960.336C1199.84 960.336 1197.87 960.096 1195.95 959.616C1194.13 959.136 1192.5 958.416 1191.06 957.456C1189.62 956.4 1188.42 955.104 1187.46 953.568C1186.59 951.936 1186.16 950.016 1186.16 947.808ZM1297.78 926.784H1264.51C1264.61 925.344 1264.9 923.712 1265.38 921.888C1265.95 920.064 1266.87 918.336 1268.11 916.704C1269.46 915.072 1271.19 913.728 1273.3 912.672C1275.51 911.52 1278.24 910.944 1281.51 910.944C1286.5 910.944 1290.19 912.288 1292.59 914.976C1295.09 917.664 1296.82 921.6 1297.78 926.784ZM1264.51 939.744H1318.23C1318.61 933.984 1318.13 928.464 1316.79 923.184C1315.44 917.904 1313.23 913.2 1310.16 909.072C1307.19 904.944 1303.35 901.68 1298.64 899.28C1293.94 896.784 1288.42 895.536 1282.08 895.536C1276.42 895.536 1271.23 896.544 1266.53 898.56C1261.92 900.576 1257.94 903.36 1254.58 906.912C1251.22 910.368 1248.63 914.496 1246.8 919.296C1244.98 924.096 1244.07 929.28 1244.07 934.848C1244.07 940.608 1244.93 945.888 1246.66 950.688C1248.48 955.488 1251.03 959.616 1254.29 963.072C1257.55 966.528 1261.54 969.216 1266.24 971.136C1270.95 972.96 1276.23 973.872 1282.08 973.872C1290.53 973.872 1297.73 971.952 1303.68 968.112C1309.63 964.272 1314.05 957.888 1316.93 948.96H1298.93C1298.26 951.264 1296.43 953.472 1293.46 955.584C1290.48 957.6 1286.93 958.608 1282.8 958.608C1277.04 958.608 1272.63 957.12 1269.55 954.144C1266.48 951.168 1264.8 946.368 1264.51 939.744ZM1330.35 897.552V972H1350.8V938.448C1350.8 935.088 1351.14 931.968 1351.81 929.088C1352.48 926.208 1353.59 923.712 1355.12 921.6C1356.75 919.392 1358.87 917.664 1361.46 916.416C1364.05 915.168 1367.22 914.544 1370.96 914.544C1372.21 914.544 1373.51 914.64 1374.85 914.832C1376.19 914.928 1377.35 915.072 1378.31 915.264V896.256C1376.67 895.776 1375.19 895.536 1373.84 895.536C1371.25 895.536 1368.75 895.92 1366.35 896.688C1363.95 897.456 1361.7 898.56 1359.59 900C1357.47 901.344 1355.6 903.024 1353.97 905.04C1352.34 906.96 1351.04 909.072 1350.08 911.376H1349.79V897.552H1330.35Z" fill="black"/>
<path d="M774.697 500.191C774.219 499.885 771.081 491.5 771.081 491.5L756.642 464.011L663.768 316.913V304.955L800.565 475.375L802.517 482.67L804.003 483.166C804.003 483.166 804.928 483.255 804.003 483.166C823.367 487.838 834.099 504.814 834.099 504.814L837.444 511.852L849.371 465.803C849.371 465.803 982.386 340.226 994 254.125L961.078 262.499C961.078 262.499 925.311 227.823 921.529 205.095C917.769 182.368 909.614 99.8505 873.202 79.5278C873.202 79.5278 855.645 75.3405 842.473 82.5271C842.473 82.5271 793.521 28.103 721.362 29.3007L713.831 0C713.831 0 489.166 16.749 491.057 230.812C491.057 230.812 486.092 316.29 538.18 367.715L536.289 363.26C536.289 363.26 553.171 394.63 528.071 426.93C528.071 426.93 505.487 426.336 501.716 449.054L471.6 500.478C471.6 500.478 461.554 499.271 453.398 513.031C445.243 526.8 385 640.409 385 640.409C385 640.409 550.043 563.267 619.075 575.235C619.075 575.235 746.45 569.355 868.215 749C868.215 749 877.596 613.494 844.986 597.349L774.697 500.191ZM772.827 381.494L830.556 307.351H834.951L859.436 310.34L787.87 394.64L772.827 381.494ZM816.75 414.387L799.806 402.41L875.102 312.122H898.331L816.75 414.387ZM946.639 307.341C946.639 307.341 857.546 435.908 845.61 435.314C833.684 434.7 828.666 423.346 828.666 423.346C828.666 423.346 924.667 318.685 919.025 312.122L946.639 307.341ZM896.815 231.387L908.761 262.598L810.621 242.384L799.806 206.382L896.815 231.387ZM794.778 300.768L816.75 306.747L760.267 374.515L745.817 358.776L794.778 300.768Z" fill="black"/>
</svg>
