<svg width="192" height="232" viewBox="0 0 192 232" fill="none" xmlns="http://www.w3.org/2000/svg">
<path d="M79.936 111.996L79.935 111.995V107.769L79.944 107.781L138.419 180.888V180.887V180.888L138.42 180.884L144.003 166.54C154.478 155.599 189.466 117.134 191.138 89.808C187.148 90.88 183.346 91.673 179.716 92.255L168.259 74.803C165.69 57.954 159.903 43.073 150.163 28.222L146.682 22.915L142.195 27.406C141.613 27.989 141.056 28.57 140.492 29.152C140.393 29.146 140.32 29.15 140.259 29.16C132.853 17.62 117.275 9.645 99.197 9.645C99.183 9.645 99.17 9.647 99.155 9.647L96.792 0C96.792 0 96.775 0.0019989 96.774 0.0019989C96.409 0.0219989 47.204 2.736 28.547 45.776C27.312 48.579 26.246 51.584 25.316 54.738C25.257 54.937 25.19 55.127 25.132 55.328C24.802 56.475 24.518 57.676 24.229 58.871C24.102 59.397 23.95 59.895 23.831 60.431C23.763 60.739 23.72 61.034 23.655 61.34C23.543 61.862 23.457 62.372 23.354 62.89C16.841 95.57 26.724 120.324 38.082 136.783C38.032 143.24 36.475 147.238 35.338 149.233C35.083 149.64 34.813 150.047 34.522 150.455H28.323L15.742 175.845H11.406L0.0120087 198.838L0.0130005 198.837C0.00900049 198.846 0.004 198.854 0 198.863C14.334 189.823 31.296 184.573 49.495 184.573C63.689 184.573 77.133 187.767 89.166 193.457C103.696 200.327 116.144 210.856 125.353 223.85C127.023 226.207 128.585 228.644 130.034 231.156H138.598H155.325L79.936 111.996ZM119.868 143.233L114.929 137.058L115.242 136.656L116.669 134.825L136.1 109.9C138.81 110.346 141.762 110.77 144.889 111.136L120.656 142.222L119.868 143.233ZM128.071 153.488L123.132 147.314L124.234 145.901L126.611 142.852L150.865 111.741C153.917 111.991 157.071 112.149 160.257 112.205L129.648 151.467L128.071 153.488ZM177.237 111.202L138.641 160.711L136.276 163.745L131.337 157.57L133.227 155.145L136.379 151.101L166.748 112.146C170.286 112.017 173.809 111.724 177.237 111.202ZM131.219 74.415L131.646 68.637L134.246 70.721C136.017 72.189 139.731 75.223 145.063 78.16C145.063 78.16 145.064 78.16 145.064 78.161C148.727 80.178 153.147 82.136 158.302 83.514L160.25 86.481L163.372 91.236L164.876 93.526C164.57 93.528 164.273 93.524 163.971 93.523C142.313 93.448 130.397 85.549 130.397 85.549L131.219 74.415ZM122.102 107.079C123.775 107.489 126.57 108.133 130.179 108.838L130.368 108.986L112.284 132.183L111.664 132.978L106.725 126.804L122.102 107.079Z" fill="white"/>
</svg>
